<svg id="Layer_1" data-name="Layer 1" xmlns="http://www.w3.org/2000/svg" viewBox="0 0 576.49 128.84"><defs><style>.cls-1{fill:#f60c0e;}.cls-2{fill:#020202;}.cls-3{fill:#fdfdfd;}</style></defs><path class="cls-1" d="M802.5,480c-2.3,3.3-5.5,4.3-9.6,4.3-39.7-.1-79.3,0-119,0-1.8-5-1.4-10,0-15.1,39.6,0,79.3.1,118.9,0,4,0,7.2,1,9.5,4.3C802.5,475.7,802.5,477.9,802.5,480Z" transform="translate(-226.01 -410.26)"/><path class="cls-2" d="M674,469.3c-1.5,5-1.9,10,0,15.1,3,11.8,13.5,19.7,26.6,19.9,13.3.2,26.6.1,39.9.1,1,0,2.2-.6,2.9.7.5,1-.2,1.8-.7,2.6-10.4,16.3-24.6,27.2-44,30.5-36.2,6.2-70.1-20.6-72.5-57.1-2.5-37.3,25.4-62,52.3-65.8,24.7-3.5,50.1,6.1,64.4,30.9,1.9,3.3-.5,3-2.5,3-12.9,0-25.9-.1-38.8,0-13.7.1-23.8,7.3-27.5,19.4C673.9,468.8,674,469,674,469.3Zm14.1-34.6a5.75,5.75,0,0,0-11.5-.1,5.85,5.85,0,0,0,5.9,5.9A6,6,0,0,0,688.1,434.7Z" transform="translate(-226.01 -410.26)"/><path class="cls-2" d="M473.7,478.5c2.7,11.6,12.7,20.8,24.9,21,13.9.2,27.8.2,41.7.2,1,0,2.3-.6,3,.5.9,1.3-.3,2.2-.9,3.2-12.4,19.2-29.8,30.4-52.8,30.9-16.9.4-31.9-5.8-44.4-17.3-11.6-10.7-17.8-24.1-19-39.7-3-40.8,29.9-66.2,58-67,25.7-.8,45.3,9.5,58.7,31.5,1.9,3.1-.3,3.1-2.5,3.1-12.9,0-25.9-.1-38.8,0-13.6.1-23.8,7.2-27.5,19-.2.8-.3,1.6-.5,2.4C472.7,470.3,471.9,474.4,473.7,478.5Zm14.4-49.3a5.83,5.83,0,0,0-5.6-5.8,5.56,5.56,0,0,0-5.9,5.4,5.69,5.69,0,0,0,5.6,6A6,6,0,0,0,488.1,429.2Z" transform="translate(-226.01 -410.26)"/><path class="cls-2" d="M299.1,499.3c2.6.1,5.2.4,7.9.4,11.3,0,22.5,0,33.8-.1,1,0,2-.3,2.6.7s-.1,1.8-.6,2.6c-10.6,16.7-25.3,27.7-45.1,30.7-33.5,5.1-65-17.9-70.8-51.3-6.2-35.6,20.6-69.8,56.8-71.9,25.8-1.5,45.6,9.1,59.2,31.1,1.5,2.5,1,3.2-2.1,3.2h-37c-1.5,0-3.1.2-4.6.3a25.3,25.3,0,0,0-12.2,3.5c-6.6,3.3-10.6,8.7-12.5,15.7-1.5,5-2.4,10-.3,15.1,2.3,7.5,6.3,13.6,13.6,17.1A18.27,18.27,0,0,0,299.1,499.3Zm-11-71.3a5.75,5.75,0,0,0-11.5-.3,5.57,5.57,0,0,0,5.7,5.9A5.83,5.83,0,0,0,288.1,428Z" transform="translate(-226.01 -410.26)"/><path class="cls-1" d="M274,479.3c-2.1-5.1-1.2-10.1.3-15.1,3.6,0,7.1,0,10.7.1,1.5,0,2.1-.4,2-2-.1-4.6-.1-9.2-.2-13.8A24.69,24.69,0,0,1,299,445a10,10,0,0,1,3,8c-.1,12.8-.1,25.7,0,38.5,0,3-.7,5.6-2.9,7.7a20,20,0,0,1-11.5-2.9c-1.2-4.8-.5-9.7-.6-14.6,0-2-.6-2.6-2.6-2.6C280.9,479.4,277.5,479.3,274,479.3Z" transform="translate(-226.01 -410.26)"/><path class="cls-1" d="M473.7,478.5c-1.8-4.1-1-8.2,0-12.3,5-1.9,9.3-.4,13.5,2.5,8.3,5.7,8.3,5.7,16.8-.1,6.2-4.2,11.3-4.8,17.2,0,6.3,5.1,11.7,5.3,17.7-.1a11.65,11.65,0,0,1,8.3-3c2.9,0,4.8,1.3,5.2,4.3s-.6,5-3.6,5.7a16.2,16.2,0,0,0-7.1,4c-9,7.2-15.3,7.1-23.8-.6-3.9-3.5-5.5-3.6-9.6-.3-.9.7-1.8,1.6-2.7,2.3-5.9,4.8-12.6,5.1-18.8.6-1.2-.8-2.2-1.8-3.4-2.7C478.8,475.2,478.4,475.2,473.7,478.5Z" transform="translate(-226.01 -410.26)"/><path class="cls-3" d="M688.1,434.7a6,6,0,0,1-5.6,5.8,5.85,5.85,0,0,1-5.9-5.9,5.68,5.68,0,0,1,5.8-5.5A5.61,5.61,0,0,1,688.1,434.7Z" transform="translate(-226.01 -410.26)"/><path class="cls-3" d="M488.1,429.2a6,6,0,0,1-5.8,5.6,5.7,5.7,0,1,1,.3-11.4A5.74,5.74,0,0,1,488.1,429.2Z" transform="translate(-226.01 -410.26)"/><path class="cls-3" d="M274,479.3c3.5,0,6.9.1,10.4-.1,2-.1,2.6.5,2.6,2.6.1,4.9-.7,9.8.6,14.6C280.3,492.9,276.3,486.8,274,479.3Z" transform="translate(-226.01 -410.26)"/><path class="cls-3" d="M286.8,448.5c0,4.6,0,9.2.2,13.8,0,1.6-.5,2-2,2-3.6-.1-7.1-.1-10.7-.1A24.08,24.08,0,0,1,286.8,448.5Z" transform="translate(-226.01 -410.26)"/><path class="cls-3" d="M288.1,428a5.68,5.68,0,0,1-5.8,5.5,5.57,5.57,0,0,1-5.7-5.9,5.9,5.9,0,0,1,5.9-5.5A6.14,6.14,0,0,1,288.1,428Z" transform="translate(-226.01 -410.26)"/></svg>